<svg width="122" height="29" viewBox="0 0 122 29" fill="none" xmlns="http://www.w3.org/2000/svg">
<path d="M1.31038 3.438H8.04238C10.9904 3.438 13.2124 3.878 14.7084 4.758C16.2264 5.616 16.9854 7.123 16.9854 9.279C16.9854 10.665 16.6004 11.82 15.8304 12.744C15.0604 13.646 13.9494 14.229 12.4974 14.493V14.658C13.4874 14.812 14.3784 15.098 15.1704 15.516C15.9844 15.934 16.6224 16.528 17.0844 17.298C17.5464 18.068 17.7774 19.069 17.7774 20.301C17.7774 22.435 17.0404 24.085 15.5664 25.251C14.1144 26.417 12.1234 27 9.59338 27H1.31038V3.438ZM4.28038 13.47H8.63638C10.6604 13.47 12.0464 13.151 12.7944 12.513C13.5424 11.853 13.9164 10.885 13.9164 9.609C13.9164 8.311 13.4544 7.387 12.5304 6.837C11.6284 6.265 10.1764 5.979 8.17438 5.979H4.28038V13.47ZM4.28038 15.945V24.492H9.03238C11.1224 24.492 12.5744 24.085 13.3884 23.271C14.2024 22.457 14.6094 21.39 14.6094 20.07C14.6094 18.838 14.1804 17.848 13.3224 17.1C12.4864 16.33 10.9794 15.945 8.80138 15.945H4.28038ZM23.8623 2.679C24.3023 2.679 24.6873 2.833 25.0173 3.141C25.3693 3.427 25.5453 3.889 25.5453 4.527C25.5453 5.143 25.3693 5.605 25.0173 5.913C24.6873 6.221 24.3023 6.375 23.8623 6.375C23.3783 6.375 22.9713 6.221 22.6413 5.913C22.3113 5.605 22.1463 5.143 22.1463 4.527C22.1463 3.889 22.3113 3.427 22.6413 3.141C22.9713 2.833 23.3783 2.679 23.8623 2.679ZM25.2813 9.312V27H22.3773V9.312H25.2813ZM37.5841 9.015C39.7401 9.015 41.3351 9.488 42.3691 10.434C43.4031 11.38 43.9201 12.887 43.9201 14.955V27H41.8081L41.2471 24.492H41.1151C40.3451 25.46 39.5311 26.175 38.6731 26.637C37.8371 27.099 36.6711 27.33 35.1751 27.33C33.5691 27.33 32.2381 26.912 31.1821 26.076C30.1261 25.218 29.5981 23.887 29.5981 22.083C29.5981 20.323 30.2911 18.97 31.6771 18.024C33.0631 17.056 35.1971 16.528 38.0791 16.44L41.0821 16.341V15.285C41.0821 13.811 40.7631 12.788 40.1251 12.216C39.4871 11.644 38.5851 11.358 37.4191 11.358C36.4951 11.358 35.6151 11.501 34.7791 11.787C33.9431 12.051 33.1621 12.359 32.4361 12.711L31.5451 10.533C32.3151 10.115 33.2281 9.763 34.2841 9.477C35.3401 9.169 36.4401 9.015 37.5841 9.015ZM41.0491 18.354L38.4421 18.453C36.2421 18.541 34.7131 18.893 33.8551 19.509C33.0191 20.125 32.6011 20.994 32.6011 22.116C32.6011 23.106 32.8981 23.832 33.4921 24.294C34.1081 24.756 34.8891 24.987 35.8351 24.987C37.3311 24.987 38.5741 24.58 39.5641 23.766C40.5541 22.93 41.0491 21.654 41.0491 19.938V18.354ZM57.8971 8.982C60.0091 8.982 61.6041 9.499 62.6821 10.533C63.7601 11.545 64.2991 13.195 64.2991 15.483V27H61.4281V15.681C61.4281 12.843 60.1081 11.424 57.4681 11.424C55.5101 11.424 54.1571 11.974 53.4091 13.074C52.6611 14.174 52.2871 15.758 52.2871 17.826V27H49.3831V9.312H51.7261L52.1551 11.721H52.3201C52.8921 10.797 53.6841 10.115 54.6961 9.675C55.7081 9.213 56.7751 8.982 57.8971 8.982ZM72.6865 27H69.7825V1.92H72.6865V27ZM79.7754 2.679C80.2154 2.679 80.6004 2.833 80.9304 3.141C81.2824 3.427 81.4584 3.889 81.4584 4.527C81.4584 5.143 81.2824 5.605 80.9304 5.913C80.6004 6.221 80.2154 6.375 79.7754 6.375C79.2914 6.375 78.8844 6.221 78.5544 5.913C78.2244 5.605 78.0594 5.143 78.0594 4.527C78.0594 3.889 78.2244 3.427 78.5544 3.141C78.8844 2.833 79.2914 2.679 79.7754 2.679ZM81.1944 9.312V27H78.2904V9.312H81.1944ZM93.4972 9.015C95.6532 9.015 97.2482 9.488 98.2822 10.434C99.3162 11.38 99.8332 12.887 99.8332 14.955V27H97.7212L97.1602 24.492H97.0282C96.2582 25.46 95.4442 26.175 94.5862 26.637C93.7502 27.099 92.5842 27.33 91.0882 27.33C89.4822 27.33 88.1512 26.912 87.0952 26.076C86.0392 25.218 85.5112 23.887 85.5112 22.083C85.5112 20.323 86.2042 18.97 87.5902 18.024C88.9762 17.056 91.1102 16.528 93.9922 16.44L96.9952 16.341V15.285C96.9952 13.811 96.6762 12.788 96.0382 12.216C95.4002 11.644 94.4982 11.358 93.3322 11.358C92.4082 11.358 91.5282 11.501 90.6922 11.787C89.8562 12.051 89.0752 12.359 88.3492 12.711L87.4582 10.533C88.2282 10.115 89.1412 9.763 90.1972 9.477C91.2532 9.169 92.3532 9.015 93.4972 9.015ZM96.9622 18.354L94.3552 18.453C92.1552 18.541 90.6262 18.893 89.7682 19.509C88.9322 20.125 88.5142 20.994 88.5142 22.116C88.5142 23.106 88.8112 23.832 89.4052 24.294C90.0212 24.756 90.8022 24.987 91.7482 24.987C93.2442 24.987 94.4872 24.58 95.4772 23.766C96.4672 22.93 96.9622 21.654 96.9622 19.938V18.354ZM113.81 8.982C115.922 8.982 117.517 9.499 118.595 10.533C119.673 11.545 120.212 13.195 120.212 15.483V27H117.341V15.681C117.341 12.843 116.021 11.424 113.381 11.424C111.423 11.424 110.07 11.974 109.322 13.074C108.574 14.174 108.2 15.758 108.2 17.826V27H105.296V9.312H107.639L108.068 11.721H108.233C108.805 10.797 109.597 10.115 110.609 9.675C111.621 9.213 112.688 8.982 113.81 8.982Z" fill="white"/>
<path d="M1.31038 3.438V2.438H0.310375V3.438H1.31038ZM14.7084 4.758L14.2014 5.61993L14.2088 5.62431L14.2163 5.62856L14.7084 4.758ZM15.8304 12.744L16.591 13.3933L16.5986 13.3842L15.8304 12.744ZM12.4974 14.493L12.3185 13.5091L11.4974 13.6584V14.493H12.4974ZM12.4974 14.658H11.4974V15.5145L12.3437 15.6461L12.4974 14.658ZM15.1704 15.516L14.7036 16.4004L14.7136 16.4056L15.1704 15.516ZM17.0844 17.298L17.9419 16.7835L17.9419 16.7835L17.0844 17.298ZM15.5664 25.251L14.946 24.4667L14.9402 24.4713L15.5664 25.251ZM1.31038 27H0.310375V28H1.31038V27ZM4.28038 13.47H3.28038V14.47H4.28038V13.47ZM12.7944 12.513L13.4433 13.2738L13.4497 13.2684L13.456 13.2628L12.7944 12.513ZM12.5304 6.837L11.9948 7.68151L12.0068 7.68907L12.0189 7.69629L12.5304 6.837ZM4.28038 5.979V4.979H3.28038V5.979H4.28038ZM4.28038 15.945V14.945H3.28038V15.945H4.28038ZM4.28038 24.492H3.28038V25.492H4.28038V24.492ZM13.3884 23.271L14.0955 23.9781L14.0955 23.9781L13.3884 23.271ZM13.3224 17.1L12.6449 17.8355L12.6549 17.8448L12.6652 17.8538L13.3224 17.1ZM1.31038 4.438H8.04238V2.438H1.31038V4.438ZM8.04238 4.438C10.9218 4.438 12.932 4.87323 14.2014 5.61993L15.2154 3.89607C13.4928 2.88277 11.0589 2.438 8.04238 2.438V4.438ZM14.2163 5.62856C15.3421 6.26486 15.9854 7.38347 15.9854 9.279H17.9854C17.9854 6.86253 17.1107 4.96714 15.2004 3.88744L14.2163 5.62856ZM15.9854 9.279C15.9854 10.4687 15.66 11.3864 15.0622 12.1038L16.5986 13.3842C17.5408 12.2536 17.9854 10.8613 17.9854 9.279H15.9854ZM15.0698 12.0947C14.4831 12.7821 13.6008 13.276 12.3185 13.5091L12.6763 15.4769C14.298 15.182 15.6377 14.5099 16.5909 13.3933L15.0698 12.0947ZM11.4974 14.493V14.658H13.4974V14.493H11.4974ZM12.3437 15.6461C13.2372 15.7851 14.0204 16.0398 14.7036 16.4004L15.6371 14.6316C14.7364 14.1562 13.7376 13.8389 12.6511 13.6699L12.3437 15.6461ZM14.7136 16.4056C15.365 16.7401 15.8628 17.2056 16.2269 17.8125L17.9419 16.7835C17.382 15.8504 16.6038 15.1279 15.6272 14.6264L14.7136 16.4056ZM16.2269 17.8125C16.5672 18.3796 16.7774 19.1855 16.7774 20.301H18.7774C18.7774 18.9525 18.5256 17.7564 17.9419 16.7835L16.2269 17.8125ZM16.7774 20.301C16.7774 22.1762 16.1457 23.5177 14.946 24.4667L16.1868 26.0353C17.9351 24.6523 18.7774 22.6938 18.7774 20.301H16.7774ZM14.9402 24.4713C13.7202 25.451 11.9769 26 9.59338 26V28C12.2698 28 14.5086 27.383 16.1925 26.0307L14.9402 24.4713ZM9.59338 26H1.31038V28H9.59338V26ZM2.31038 27V3.438H0.310375V27H2.31038ZM4.28038 14.47H8.63638V12.47H4.28038V14.47ZM8.63638 14.47C10.6874 14.47 12.4011 14.1628 13.4433 13.2738L12.1454 11.7522C11.6916 12.1392 10.6333 12.47 8.63638 12.47V14.47ZM13.456 13.2628C14.476 12.3629 14.9164 11.0863 14.9164 9.609H12.9164C12.9164 10.6837 12.6088 11.3431 12.1328 11.7632L13.456 13.2628ZM14.9164 9.609C14.9164 8.04402 14.3357 6.74784 13.0419 5.97771L12.0189 7.69629C12.5731 8.02616 12.9164 8.57798 12.9164 9.609H14.9164ZM13.0659 5.99249C11.9163 5.26344 10.2253 4.979 8.17438 4.979V6.979C10.1274 6.979 11.3405 7.26656 11.9948 7.68151L13.0659 5.99249ZM8.17438 4.979H4.28038V6.979H8.17438V4.979ZM3.28038 5.979V13.47H5.28038V5.979H3.28038ZM3.28038 15.945V24.492H5.28038V15.945H3.28038ZM4.28038 25.492H9.03238V23.492H4.28038V25.492ZM9.03238 25.492C11.1909 25.492 12.9899 25.0837 14.0955 23.9781L12.6813 22.5639C12.1588 23.0863 11.0539 23.492 9.03238 23.492V25.492ZM14.0955 23.9781C15.1249 22.9487 15.6094 21.613 15.6094 20.07H13.6094C13.6094 21.167 13.2799 21.9653 12.6813 22.5639L14.0955 23.9781ZM15.6094 20.07C15.6094 18.5759 15.0748 17.3011 13.9795 16.3462L12.6652 17.8538C13.2859 18.3949 13.6094 19.1001 13.6094 20.07H15.6094ZM13.9999 16.3645C12.8711 15.3248 11.0289 14.945 8.80138 14.945V16.945C10.9299 16.945 12.1016 17.3352 12.6449 17.8355L13.9999 16.3645ZM8.80138 14.945H4.28038V16.945H8.80138V14.945ZM25.0173 3.141L24.3349 3.87205L24.36 3.89547L24.3867 3.91711L25.0173 3.141ZM25.0173 5.913L24.3588 5.16042L24.3467 5.17099L24.3349 5.18194L25.0173 5.913ZM22.6413 5.913L23.3236 5.18194L23.3236 5.18194L22.6413 5.913ZM22.6413 3.141L23.2962 3.89669L23.3101 3.88462L23.3236 3.87205L22.6413 3.141ZM25.2813 9.312H26.2813V8.312H25.2813V9.312ZM25.2813 27V28H26.2813V27H25.2813ZM22.3773 27H21.3773V28H22.3773V27ZM22.3773 9.312V8.312H21.3773V9.312H22.3773ZM23.8623 3.679C24.0418 3.679 24.1848 3.73192 24.3349 3.87205L25.6996 2.40994C25.1897 1.93408 24.5627 1.679 23.8623 1.679V3.679ZM24.3867 3.91711C24.4208 3.94486 24.5453 4.06175 24.5453 4.527H26.5453C26.5453 3.71625 26.3177 2.90913 25.6479 2.36488L24.3867 3.91711ZM24.5453 4.527C24.5453 4.95156 24.4301 5.09797 24.3588 5.16042L25.6758 6.66557C26.3084 6.11203 26.5453 5.33443 26.5453 4.527H24.5453ZM24.3349 5.18194C24.1848 5.32208 24.0418 5.375 23.8623 5.375V7.375C24.5627 7.375 25.1897 7.11992 25.6996 6.64405L24.3349 5.18194ZM23.8623 5.375C23.6115 5.375 23.4543 5.30392 23.3236 5.18194L21.9589 6.64405C22.4883 7.13808 23.145 7.375 23.8623 7.375V5.375ZM23.3236 5.18194C23.2618 5.12428 23.1463 4.9705 23.1463 4.527H21.1463C21.1463 5.31549 21.3607 6.08571 21.9589 6.64405L23.3236 5.18194ZM23.1463 4.527C23.1463 4.04242 23.2709 3.91858 23.2962 3.89669L21.9863 2.38531C21.3516 2.93542 21.1463 3.73558 21.1463 4.527H23.1463ZM23.3236 3.87205C23.4543 3.75008 23.6115 3.679 23.8623 3.679V1.679C23.145 1.679 22.4883 1.91592 21.9589 2.40994L23.3236 3.87205ZM24.2813 9.312V27H26.2813V9.312H24.2813ZM25.2813 26H22.3773V28H25.2813V26ZM23.3773 27V9.312H21.3773V27H23.3773ZM22.3773 10.312H25.2813V8.312H22.3773V10.312ZM42.3691 10.434L43.0441 9.69619L43.0441 9.69619L42.3691 10.434ZM43.9201 27V28H44.9201V27H43.9201ZM41.8081 27L40.8322 27.2183L41.0071 28H41.8081V27ZM41.2471 24.492L42.223 24.2737L42.0481 23.492H41.2471V24.492ZM41.1151 24.492V23.492H40.6327L40.3325 23.8695L41.1151 24.492ZM38.6731 26.637L38.199 25.7565L38.1894 25.7618L38.6731 26.637ZM31.1821 26.076L30.5514 26.8522L30.5614 26.86L31.1821 26.076ZM31.6771 18.024L32.2409 18.85L32.2497 18.8438L31.6771 18.024ZM38.0791 16.44L38.1096 17.4395L38.112 17.4395L38.0791 16.44ZM41.0821 16.341L41.115 17.3405L42.0821 17.3086V16.341H41.0821ZM40.1251 12.216L39.4575 12.9606L39.4575 12.9606L40.1251 12.216ZM34.7791 11.787L35.0802 12.7406L35.0915 12.737L35.1028 12.7332L34.7791 11.787ZM32.4361 12.711L31.5105 13.0896L31.9139 14.0755L32.8724 13.6108L32.4361 12.711ZM31.5451 10.533L31.068 9.65415L30.2801 10.0819L30.6195 10.9116L31.5451 10.533ZM34.2841 9.477L34.5455 10.4422L34.5548 10.4397L34.5641 10.437L34.2841 9.477ZM41.0491 18.354H42.0491V17.3153L41.0111 17.3547L41.0491 18.354ZM38.4421 18.453L38.4041 17.4537L38.4021 17.4538L38.4421 18.453ZM33.8551 19.509L33.2718 18.6966L33.2619 18.7039L33.8551 19.509ZM33.4921 24.294L32.8781 25.0834L32.8851 25.0887L32.8921 25.094L33.4921 24.294ZM39.5641 23.766L40.1992 24.5385L40.2093 24.53L39.5641 23.766ZM37.5841 10.015C39.6201 10.015 40.9219 10.4653 41.6941 11.1718L43.0441 9.69619C41.7483 8.51065 39.8601 8.015 37.5841 8.015V10.015ZM41.6941 11.1718C42.4391 11.8534 42.9201 13.033 42.9201 14.955H44.9201C44.9201 12.741 44.3671 10.9066 43.0441 9.69619L41.6941 11.1718ZM42.9201 14.955V27H44.9201V14.955H42.9201ZM43.9201 26H41.8081V28H43.9201V26ZM42.784 26.7817L42.223 24.2737L40.2712 24.7103L40.8322 27.2183L42.784 26.7817ZM41.2471 23.492H41.1151V25.492H41.2471V23.492ZM40.3325 23.8695C39.6249 24.759 38.9103 25.3735 38.199 25.7565L39.1472 27.5175C40.1519 26.9765 41.0652 26.161 41.8977 25.1145L40.3325 23.8695ZM38.1894 25.7618C37.5624 26.1083 36.5888 26.33 35.1751 26.33V28.33C36.7534 28.33 38.1118 28.0897 39.1568 27.5122L38.1894 25.7618ZM35.1751 26.33C33.7494 26.33 32.6498 25.9625 31.8028 25.292L30.5614 26.86C31.8263 27.8615 33.3887 28.33 35.1751 28.33V26.33ZM31.8127 25.2999C31.0613 24.6894 30.5981 23.691 30.5981 22.083H28.5981C28.5981 24.083 29.1909 25.7466 30.5515 26.8521L31.8127 25.2999ZM30.5981 22.083C30.5981 20.6343 31.1433 19.5991 32.2408 18.8499L31.1133 17.198C29.4389 18.3409 28.5981 20.0117 28.5981 22.083H30.5981ZM32.2497 18.8438C33.3994 18.0408 35.3002 17.5253 38.1096 17.4395L38.0486 15.4405C35.094 15.5307 32.7267 16.0712 31.1045 17.2042L32.2497 18.8438ZM38.112 17.4395L41.115 17.3405L41.0491 15.3415L38.0461 15.4405L38.112 17.4395ZM42.0821 16.341V15.285H40.0821V16.341H42.0821ZM42.0821 15.285C42.0821 13.7209 41.753 12.3325 40.7926 11.4714L39.4575 12.9606C39.7732 13.2435 40.0821 13.9011 40.0821 15.285H42.0821ZM40.7926 11.4714C39.9139 10.6836 38.7418 10.358 37.4191 10.358V12.358C38.4284 12.358 39.0603 12.6044 39.4575 12.9606L40.7926 11.4714ZM37.4191 10.358C36.39 10.358 35.4003 10.5176 34.4554 10.8408L35.1028 12.7332C35.8299 12.4844 36.6001 12.358 37.4191 12.358V10.358ZM34.4779 10.8334C33.5996 11.1108 32.7731 11.4363 31.9998 11.8112L32.8724 13.6108C33.5511 13.2817 34.2866 12.9912 35.0802 12.7406L34.4779 10.8334ZM33.3616 12.3324L32.4706 10.1544L30.6195 10.9116L31.5105 13.0896L33.3616 12.3324ZM32.0222 11.4119C32.7095 11.0388 33.5468 10.7127 34.5455 10.4422L34.0227 8.51177C32.9093 8.8133 31.9207 9.19125 31.068 9.65415L32.0222 11.4119ZM34.5641 10.437C35.5255 10.1566 36.531 10.015 37.5841 10.015V8.015C36.3491 8.015 35.1546 8.18142 34.0041 8.517L34.5641 10.437ZM41.0111 17.3547L38.4041 17.4537L38.48 19.4523L41.087 19.3533L41.0111 17.3547ZM38.4021 17.4538C36.1781 17.5428 34.3866 17.8964 33.2719 18.6967L34.4383 20.3213C35.0396 19.8896 36.3061 19.5392 38.482 19.4522L38.4021 17.4538ZM33.2619 18.7039C32.147 19.5254 31.6011 20.706 31.6011 22.116H33.6011C33.6011 21.282 33.8911 20.7246 34.4483 20.3141L33.2619 18.7039ZM31.6011 22.116C31.6011 23.3092 31.9679 24.3754 32.8781 25.0834L34.106 23.5046C33.8282 23.2886 33.6011 22.9028 33.6011 22.116H31.6011ZM32.8921 25.094C33.7176 25.7132 34.7232 25.987 35.8351 25.987V23.987C35.055 23.987 34.4985 23.7988 34.0921 23.494L32.8921 25.094ZM35.8351 25.987C37.5221 25.987 39.0012 25.5235 40.1992 24.5384L38.929 22.9936C38.147 23.6365 37.1401 23.987 35.8351 23.987V25.987ZM40.2093 24.53C41.4918 23.447 42.0491 21.8468 42.0491 19.938H40.0491C40.0491 21.4612 39.6163 22.413 38.9189 23.002L40.2093 24.53ZM42.0491 19.938V18.354H40.0491V19.938H42.0491ZM62.6821 10.533L61.9899 11.2547L61.9977 11.2621L62.6821 10.533ZM64.2991 27V28H65.2991V27H64.2991ZM61.4281 27H60.4281V28H61.4281V27ZM53.4091 13.074L54.2361 13.6363L54.2361 13.6363L53.4091 13.074ZM52.2871 27V28H53.2871V27H52.2871ZM49.3831 27H48.3831V28H49.3831V27ZM49.3831 9.312V8.312H48.3831V9.312H49.3831ZM51.7261 9.312L52.7106 9.13668L52.5638 8.312H51.7261V9.312ZM52.1551 11.721L51.1706 11.8963L51.3175 12.721H52.1551V11.721ZM52.3201 11.721V12.721H52.8772L53.1704 12.2474L52.3201 11.721ZM54.6961 9.675L55.0949 10.5921L55.1032 10.5885L55.1114 10.5847L54.6961 9.675ZM57.8971 9.982C59.8584 9.982 61.1633 10.4618 61.9899 11.2547L63.3744 9.81132C62.0449 8.53616 60.1598 7.982 57.8971 7.982V9.982ZM61.9977 11.2621C62.7868 12.0028 63.2991 13.3222 63.2991 15.483H65.2991C65.2991 13.0678 64.7335 11.0872 63.3666 9.80393L61.9977 11.2621ZM63.2991 15.483V27H65.2991V15.483H63.2991ZM64.2991 26H61.4281V28H64.2991V26ZM62.4281 27V15.681H60.4281V27H62.4281ZM62.4281 15.681C62.4281 14.1251 62.0678 12.7719 61.1703 11.8071C60.2602 10.8288 58.9616 10.424 57.4681 10.424V12.424C58.6147 12.424 59.2961 12.7287 59.7059 13.1694C60.1285 13.6236 60.4281 14.3989 60.4281 15.681H62.4281ZM57.4681 10.424C55.3451 10.424 53.5935 11.0244 52.5822 12.5117L54.2361 13.6363C54.7207 12.9236 55.6751 12.424 57.4681 12.424V10.424ZM52.5822 12.5117C51.6748 13.8461 51.2871 15.6605 51.2871 17.826H53.2871C53.2871 15.8555 53.6475 14.5019 54.2361 13.6363L52.5822 12.5117ZM51.2871 17.826V27H53.2871V17.826H51.2871ZM52.2871 26H49.3831V28H52.2871V26ZM50.3831 27V9.312H48.3831V27H50.3831ZM49.3831 10.312H51.7261V8.312H49.3831V10.312ZM50.7416 9.48732L51.1706 11.8963L53.1396 11.5457L52.7106 9.13668L50.7416 9.48732ZM52.1551 12.721H52.3201V10.721H52.1551V12.721ZM53.1704 12.2474C53.6334 11.4994 54.2666 10.9522 55.0949 10.5921L54.2974 8.75793C53.1017 9.2778 52.1508 10.0946 51.4699 11.1946L53.1704 12.2474ZM55.1114 10.5847C55.9919 10.1827 56.9172 9.982 57.8971 9.982V7.982C56.6331 7.982 55.4243 8.24327 54.2808 8.76531L55.1114 10.5847ZM72.6865 27V28H73.6865V27H72.6865ZM69.7825 27H68.7825V28H69.7825V27ZM69.7825 1.92V0.919998H68.7825V1.92H69.7825ZM72.6865 1.92H73.6865V0.919998H72.6865V1.92ZM72.6865 26H69.7825V28H72.6865V26ZM70.7825 27V1.92H68.7825V27H70.7825ZM69.7825 2.92H72.6865V0.919998H69.7825V2.92ZM71.6865 1.92V27H73.6865V1.92H71.6865ZM80.9304 3.141L80.248 3.87205L80.2731 3.89547L80.2998 3.91711L80.9304 3.141ZM80.9304 5.913L80.2718 5.16042L80.2598 5.17099L80.248 5.18194L80.9304 5.913ZM78.5544 5.913L79.2367 5.18194L79.2367 5.18194L78.5544 5.913ZM78.5544 3.141L79.2093 3.89669L79.2232 3.88462L79.2367 3.87205L78.5544 3.141ZM81.1944 9.312H82.1944V8.312H81.1944V9.312ZM81.1944 27V28H82.1944V27H81.1944ZM78.2904 27H77.2904V28H78.2904V27ZM78.2904 9.312V8.312H77.2904V9.312H78.2904ZM79.7754 3.679C79.9549 3.679 80.0979 3.73192 80.248 3.87205L81.6127 2.40994C81.1028 1.93408 80.4758 1.679 79.7754 1.679V3.679ZM80.2998 3.91711C80.3339 3.94486 80.4584 4.06175 80.4584 4.527H82.4584C82.4584 3.71625 82.2308 2.90913 81.5609 2.36488L80.2998 3.91711ZM80.4584 4.527C80.4584 4.95156 80.3432 5.09797 80.2718 5.16042L81.5889 6.66557C82.2215 6.11203 82.4584 5.33443 82.4584 4.527H80.4584ZM80.248 5.18194C80.0979 5.32208 79.9549 5.375 79.7754 5.375V7.375C80.4758 7.375 81.1028 7.11992 81.6127 6.64405L80.248 5.18194ZM79.7754 5.375C79.5246 5.375 79.3674 5.30392 79.2367 5.18194L77.872 6.64405C78.4013 7.13808 79.0581 7.375 79.7754 7.375V5.375ZM79.2367 5.18194C79.1749 5.12428 79.0594 4.9705 79.0594 4.527H77.0594C77.0594 5.31549 77.2738 6.08571 77.872 6.64405L79.2367 5.18194ZM79.0594 4.527C79.0594 4.04242 79.184 3.91858 79.2093 3.89669L77.8994 2.38531C77.2647 2.93542 77.0594 3.73558 77.0594 4.527H79.0594ZM79.2367 3.87205C79.3674 3.75008 79.5246 3.679 79.7754 3.679V1.679C79.0581 1.679 78.4013 1.91592 77.872 2.40994L79.2367 3.87205ZM80.1944 9.312V27H82.1944V9.312H80.1944ZM81.1944 26H78.2904V28H81.1944V26ZM79.2904 27V9.312H77.2904V27H79.2904ZM78.2904 10.312H81.1944V8.312H78.2904V10.312ZM98.2822 10.434L98.9572 9.69619L98.9572 9.69619L98.2822 10.434ZM99.8332 27V28H100.833V27H99.8332ZM97.7212 27L96.7453 27.2183L96.9201 28H97.7212V27ZM97.1602 24.492L98.136 24.2737L97.9612 23.492H97.1602V24.492ZM97.0282 24.492V23.492H96.5458L96.2456 23.8695L97.0282 24.492ZM94.5862 26.637L94.112 25.7565L94.1025 25.7618L94.5862 26.637ZM87.0952 26.076L86.4645 26.8522L86.4745 26.86L87.0952 26.076ZM87.5902 18.024L88.1539 18.85L88.1628 18.8438L87.5902 18.024ZM93.9922 16.44L94.0227 17.4395L94.0251 17.4395L93.9922 16.44ZM96.9952 16.341L97.0281 17.3405L97.9952 17.3086V16.341H96.9952ZM96.0382 12.216L95.3706 12.9606L95.3706 12.9606L96.0382 12.216ZM90.6922 11.787L90.9933 12.7406L91.0046 12.737L91.0159 12.7332L90.6922 11.787ZM88.3492 12.711L87.4236 13.0896L87.8269 14.0755L88.7854 13.6108L88.3492 12.711ZM87.4582 10.533L86.9811 9.65415L86.1932 10.0819L86.5326 10.9116L87.4582 10.533ZM90.1972 9.477L90.4586 10.4422L90.4679 10.4397L90.4772 10.437L90.1972 9.477ZM96.9622 18.354H97.9622V17.3153L96.9242 17.3547L96.9622 18.354ZM94.3552 18.453L94.3172 17.4537L94.3152 17.4538L94.3552 18.453ZM89.7682 19.509L89.1849 18.6966L89.175 18.7039L89.7682 19.509ZM89.4052 24.294L88.7912 25.0834L88.7981 25.0887L88.8052 25.094L89.4052 24.294ZM95.4772 23.766L96.1123 24.5385L96.1223 24.53L95.4772 23.766ZM93.4972 10.015C95.5332 10.015 96.835 10.4653 97.6072 11.1718L98.9572 9.69619C97.6614 8.51065 95.7731 8.015 93.4972 8.015V10.015ZM97.6072 11.1718C98.3521 11.8534 98.8332 13.033 98.8332 14.955H100.833C100.833 12.741 100.28 10.9066 98.9572 9.69619L97.6072 11.1718ZM98.8332 14.955V27H100.833V14.955H98.8332ZM99.8332 26H97.7212V28H99.8332V26ZM98.697 26.7817L98.136 24.2737L96.1843 24.7103L96.7453 27.2183L98.697 26.7817ZM97.1602 23.492H97.0282V25.492H97.1602V23.492ZM96.2456 23.8695C95.538 24.759 94.8234 25.3735 94.1121 25.7565L95.0603 27.5175C96.065 26.9765 96.9783 26.161 97.8108 25.1145L96.2456 23.8695ZM94.1025 25.7618C93.4755 26.1083 92.5018 26.33 91.0882 26.33V28.33C92.6665 28.33 94.0248 28.0897 95.0699 27.5122L94.1025 25.7618ZM91.0882 26.33C89.6625 26.33 88.5629 25.9625 87.7159 25.292L86.4745 26.86C87.7394 27.8615 89.3018 28.33 91.0882 28.33V26.33ZM87.7258 25.2999C86.9744 24.6894 86.5112 23.691 86.5112 22.083H84.5112C84.5112 24.083 85.1039 25.7466 86.4646 26.8521L87.7258 25.2999ZM86.5112 22.083C86.5112 20.6343 87.0564 19.5991 88.1539 18.8499L87.0264 17.198C85.352 18.3409 84.5112 20.0117 84.5112 22.083H86.5112ZM88.1628 18.8438C89.3125 18.0408 91.2133 17.5253 94.0227 17.4395L93.9616 15.4405C91.0071 15.5307 88.6398 16.0712 87.0176 17.2042L88.1628 18.8438ZM94.0251 17.4395L97.0281 17.3405L96.9622 15.3415L93.9592 15.4405L94.0251 17.4395ZM97.9952 16.341V15.285H95.9952V16.341H97.9952ZM97.9952 15.285C97.9952 13.7209 97.6661 12.3325 96.7057 11.4714L95.3706 12.9606C95.6862 13.2435 95.9952 13.9011 95.9952 15.285H97.9952ZM96.7057 11.4714C95.8269 10.6836 94.6549 10.358 93.3322 10.358V12.358C94.3415 12.358 94.9734 12.6044 95.3706 12.9606L96.7057 11.4714ZM93.3322 10.358C92.3031 10.358 91.3134 10.5176 90.3685 10.8408L91.0159 12.7332C91.743 12.4844 92.5132 12.358 93.3322 12.358V10.358ZM90.391 10.8334C89.5127 11.1108 88.6861 11.4363 87.9129 11.8112L88.7854 13.6108C89.4642 13.2817 90.1997 12.9912 90.9933 12.7406L90.391 10.8334ZM89.2747 12.3324L88.3837 10.1544L86.5326 10.9116L87.4236 13.0896L89.2747 12.3324ZM87.9353 11.4119C88.6225 11.0388 89.4599 10.7127 90.4586 10.4422L89.9357 8.51177C88.8224 8.8133 87.8338 9.19125 86.9811 9.65415L87.9353 11.4119ZM90.4772 10.437C91.4386 10.1566 92.4441 10.015 93.4972 10.015V8.015C92.2622 8.015 91.0677 8.18142 89.9172 8.517L90.4772 10.437ZM96.9242 17.3547L94.3172 17.4537L94.3931 19.4523L97.0001 19.3533L96.9242 17.3547ZM94.3152 17.4538C92.0912 17.5428 90.2996 17.8964 89.185 18.6967L90.3514 20.3213C90.9527 19.8896 92.2192 19.5392 94.3951 19.4522L94.3152 17.4538ZM89.175 18.7039C88.0601 19.5254 87.5142 20.706 87.5142 22.116H89.5142C89.5142 21.282 89.8042 20.7246 90.3614 20.3141L89.175 18.7039ZM87.5142 22.116C87.5142 23.3092 87.881 24.3754 88.7912 25.0834L90.0191 23.5046C89.7413 23.2886 89.5142 22.9028 89.5142 22.116H87.5142ZM88.8052 25.094C89.6307 25.7132 90.6363 25.987 91.7482 25.987V23.987C90.9681 23.987 90.4116 23.7988 90.0052 23.494L88.8052 25.094ZM91.7482 25.987C93.4352 25.987 94.9143 25.5235 96.1123 24.5384L94.8421 22.9936C94.0601 23.6365 93.0531 23.987 91.7482 23.987V25.987ZM96.1223 24.53C97.4049 23.447 97.9622 21.8468 97.9622 19.938H95.9622C95.9622 21.4612 95.5294 22.413 94.832 23.002L96.1223 24.53ZM97.9622 19.938V18.354H95.9622V19.938H97.9622ZM118.595 10.533L117.903 11.2547L117.911 11.2621L118.595 10.533ZM120.212 27V28H121.212V27H120.212ZM117.341 27H116.341V28H117.341V27ZM109.322 13.074L110.149 13.6363L110.149 13.6363L109.322 13.074ZM108.2 27V28H109.2V27H108.2ZM105.296 27H104.296V28H105.296V27ZM105.296 9.312V8.312H104.296V9.312H105.296ZM107.639 9.312L108.624 9.13668L108.477 8.312H107.639V9.312ZM108.068 11.721L107.084 11.8963L107.231 12.721H108.068V11.721ZM108.233 11.721V12.721H108.79L109.083 12.2474L108.233 11.721ZM110.609 9.675L111.008 10.5921L111.016 10.5885L111.025 10.5847L110.609 9.675ZM113.81 9.982C115.772 9.982 117.076 10.4618 117.903 11.2547L119.287 9.81132C117.958 8.53616 116.073 7.982 113.81 7.982V9.982ZM117.911 11.2621C118.7 12.0028 119.212 13.3222 119.212 15.483H121.212C121.212 13.0678 120.647 11.0872 119.28 9.80393L117.911 11.2621ZM119.212 15.483V27H121.212V15.483H119.212ZM120.212 26H117.341V28H120.212V26ZM118.341 27V15.681H116.341V27H118.341ZM118.341 15.681C118.341 14.1251 117.981 12.7719 117.083 11.8071C116.173 10.8288 114.875 10.424 113.381 10.424V12.424C114.528 12.424 115.209 12.7287 115.619 13.1694C116.042 13.6236 116.341 14.3989 116.341 15.681H118.341ZM113.381 10.424C111.258 10.424 109.507 11.0244 108.495 12.5117L110.149 13.6363C110.634 12.9236 111.588 12.424 113.381 12.424V10.424ZM108.495 12.5117C107.588 13.8461 107.2 15.6605 107.2 17.826H109.2C109.2 15.8555 109.561 14.5019 110.149 13.6363L108.495 12.5117ZM107.2 17.826V27H109.2V17.826H107.2ZM108.2 26H105.296V28H108.2V26ZM106.296 27V9.312H104.296V27H106.296ZM105.296 10.312H107.639V8.312H105.296V10.312ZM106.655 9.48732L107.084 11.8963L109.053 11.5457L108.624 9.13668L106.655 9.48732ZM108.068 12.721H108.233V10.721H108.068V12.721ZM109.083 12.2474C109.547 11.4994 110.18 10.9522 111.008 10.5921L110.21 8.75793C109.015 9.2778 108.064 10.0946 107.383 11.1946L109.083 12.2474ZM111.025 10.5847C111.905 10.1827 112.83 9.982 113.81 9.982V7.982C112.546 7.982 111.337 8.24327 110.194 8.76531L111.025 10.5847Z" fill="white"/>
</svg>
